<?xml version="1.0" encoding="UTF-8"?>
<svg width="24px" height="24px" viewBox="0 0 24 24" version="1.1" xmlns="http://www.w3.org/2000/svg">
    <path d="M21.5,11l-1.8-6.8C19.5,3.5,18.8,3,18,3H6C5.2,3,4.5,3.5,4.3,4.2L2.5,11c-0.6,0.1-1,0.6-1,1.2v4.5 c0,0.6,0.4,1.1,1,1.2V19c0,0.6,0.4,1,1,1h1.5c0.6,0,1-0.4,1-1v-1h13v1c0,0.6,0.4,1,1,1H21c0.6,0,1-0.4,1-1v-1.1 c0.6-0.1,1-0.6,1-1.2v-4.5C23,11.6,22.1,11.1,21.5,11z M5.2,5.5C5.3,5.2,5.6,5,6,5h12c0.4,0,0.7,0.2,0.8,0.5L20.3,11H3.7L5.2,5.5z M4.5,17C3.7,17,3,16.3,3,15.5S3.7,14,4.5,14S6,14.7,6,15.5S5.3,17,4.5,17z M19.5,17c-0.8,0-1.5-0.7-1.5-1.5s0.7-1.5,1.5-1.5 s1.5,0.7,1.5,1.5S20.3,17,19.5,17z" fill="#4285F4"/>
</svg>
